<svg width="72" height="72" viewBox="0 0 72 72" fill="none" xmlns="http://www.w3.org/2000/svg">
<rect width="72" height="72" rx="36" fill="#FFE500"/>
<path d="M31.4862 23.2531C33.1983 18.9846 34.0544 16.8503 35.4453 16.5545C35.811 16.4768 36.189 16.4768 36.5547 16.5545C37.9456 16.8503 38.8017 18.9846 40.5139 23.2531C41.4876 25.6805 41.9745 26.8942 42.8854 27.7197C43.1409 27.9513 43.4183 28.1575 43.7136 28.3355C44.7665 28.9701 46.0809 29.0878 48.7097 29.3232C53.1597 29.7218 55.3847 29.921 56.0642 31.1897C56.2049 31.4524 56.3006 31.7369 56.3472 32.0313C56.5725 33.4527 54.9368 34.9409 51.6654 37.9172L50.7569 38.7437C49.2274 40.1352 48.4627 40.8309 48.0204 41.6992C47.7551 42.22 47.5771 42.781 47.4938 43.3595C47.3548 44.324 47.5787 45.3333 48.0266 47.352L48.1866 48.0732C48.9898 51.6933 49.3914 53.5033 48.8901 54.393C48.4398 55.1922 47.6103 55.7038 46.6941 55.7476C45.674 55.7963 44.2367 54.6251 41.3621 52.2827C39.4682 50.7395 38.5213 49.9679 37.4701 49.6664C36.5094 49.391 35.4907 49.391 34.53 49.6664C33.4788 49.9679 32.5318 50.7395 30.6379 52.2827C27.7633 54.6251 26.326 55.7963 25.306 55.7476C24.3897 55.7038 23.5603 55.1922 23.11 54.393C22.6086 53.5033 23.0102 51.6933 23.8134 48.0732L23.9734 47.352C24.4213 45.3333 24.6453 44.324 24.5063 43.3595C24.4229 42.781 24.245 42.22 23.9797 41.6992C23.5374 40.8309 22.7726 40.1352 21.2432 38.7437L20.3347 37.9172C17.0633 34.9409 15.4276 33.4527 15.6528 32.0313C15.6995 31.7369 15.7952 31.4524 15.9359 31.1897C16.6153 29.921 18.8404 29.7218 23.2904 29.3232C25.9192 29.0878 27.2335 28.9701 28.2864 28.3355C28.5818 28.1575 28.8591 27.9513 29.1146 27.7197C30.0256 26.8942 30.5125 25.6805 31.4862 23.2531Z" fill="#222222" stroke="#222222" stroke-width="2"/>
</svg>
