<svg width="73" height="72" viewBox="0 0 73 72" fill="none" xmlns="http://www.w3.org/2000/svg">
<rect x="0.5" width="72" height="72" rx="36" fill="#51CC88"/>
<path fill-rule="evenodd" clip-rule="evenodd" d="M11.9771 17.3333C9.8335 21.0461 9.8335 26.0308 9.8335 36C9.8335 45.9692 9.8335 50.9539 11.9771 54.6667C13.3814 57.099 15.4012 59.1188 17.8335 60.5231C21.5463 62.6667 26.5309 62.6667 36.5002 62.6667C46.4694 62.6667 51.454 62.6667 55.1668 60.5231C57.5991 59.1188 59.6189 57.099 61.0232 54.6667C63.1668 50.9539 63.1668 45.9692 63.1668 36C63.1668 26.0308 63.1668 21.0461 61.0232 17.3333C59.6189 14.901 57.5991 12.8812 55.1668 11.4769C51.454 9.33333 46.4694 9.33333 36.5002 9.33333C26.5309 9.33333 21.5463 9.33333 17.8335 11.4769C15.4012 12.8812 13.3814 14.901 11.9771 17.3333ZM51.4976 29.1094C52.1103 28.1903 51.862 26.9486 50.9429 26.3359C50.0238 25.7232 48.7821 25.9715 48.1694 26.8906L39.4144 40.0231L36.393 33.9802C35.3628 31.9199 32.4913 31.7411 31.2135 33.6577L21.5027 48.2239C20.89 49.143 21.1384 50.3847 22.0574 50.9974C22.9765 51.6101 24.2182 51.3618 24.8309 50.4427L33.5859 37.3103L36.6073 43.3532C37.6375 45.4135 40.509 45.5922 41.7868 43.6756L51.4976 29.1094Z" fill="#222222"/>
</svg>
