<svg width="72" height="72" viewBox="0 0 72 72" fill="none" xmlns="http://www.w3.org/2000/svg">
<rect width="72" height="72" rx="36" fill="#F2B832"/>
<circle cx="36.0002" cy="28" r="10.6667" fill="#33363F"/>
<circle cx="49.3335" cy="28" r="8" fill="#33363F"/>
<circle cx="22.6665" cy="28" r="8" fill="#33363F"/>
<path fill-rule="evenodd" clip-rule="evenodd" d="M50.8492 52H58.8951C59.4867 52 59.9427 51.4958 59.841 50.913C59.2861 47.7324 57.0295 38.6667 49.3334 38.6667C46.9705 38.6667 45.1204 39.5213 43.6748 40.7977C47.6954 43.4063 49.7743 47.9739 50.8492 52Z" fill="#33363F"/>
<path fill-rule="evenodd" clip-rule="evenodd" d="M28.3255 40.7977C26.8799 39.5212 25.0298 38.6667 22.6669 38.6667C14.9708 38.6667 12.7142 47.7324 12.1593 50.913C12.0576 51.4958 12.5135 52 13.1052 52H21.151C22.2259 47.9739 24.3048 43.4062 28.3255 40.7977Z" fill="#33363F"/>
<path d="M35.9998 41.3333C47.3086 41.3333 49.0258 52.8433 49.2865 56.3387C49.3276 56.8894 48.8855 57.3333 48.3332 57.3333H23.6665C23.1142 57.3333 22.6721 56.8894 22.7132 56.3387C22.9739 52.8433 24.6911 41.3333 35.9998 41.3333Z" fill="#33363F"/>
</svg>
